<svg id="006-browser" xmlns="http://www.w3.org/2000/svg" viewBox="0 0 512 431.84">
  <title>006-browser</title>
  <polygon points="496.97 111.72 496.97 416.81 63.62 416.81 63.62 431.84 512 431.84 512 111.72 496.97 111.72"/>
  <path d="M0,40.08V471.92H47.59v-15H15V119.23H497v16.53h15V40.08ZM497,104.2H15V55.11H497V104.2Z" transform="translate(0 -40.08)"/>
  <path d="M248.44,178.55l-95.24,55v110l95.24,55,95.23-55v-110Zm80.2,156.27-80.2,46.31-80.21-46.31V242.21l80.21-46.31,80.2,46.31Z" transform="translate(0 -40.08)"/>
  <path d="M288.06,237.36,248,277.44l-24-24.05-26.66,26.66,50.7,50.7L314.72,264Zm-69.53,42.69,5.41-5.41L248,298.69l40.07-40.08,5.41,5.41L248,309.5Z" transform="translate(0 -40.08)"/>
  <path d="M471.92,232.45H367.72V220.09L248,152.24,128.25,220.09v12.36H24.05v18.17l30,37.44L24.05,325.51v18.16h104.2V356L248,423.88,367.72,356V343.67h104.2V325.51L442,288.06l29.95-37.44V232.45ZM128.25,264.52H79.66v15h48.59v17H95.69v15h32.56v17H40.78l32.47-40.58L40.78,247.48h87.47v17Zm224.44,82.75L248,406.61l-104.7-59.34V228.85L248,169.52l104.71,59.33V347.27Zm70-59.21,32.46,40.58H367.72v-17h32.56v-15H367.72v-17h48.59v-15H367.72v-17h87.46Z" transform="translate(0 -40.08)"/>
  <rect x="39.58" y="32.06" width="16.03" height="15.03"/>
  <rect x="71.64" y="32.06" width="16.03" height="15.03"/>
  <rect x="103.7" y="32.06" width="16.03" height="15.03"/>
  <rect x="448.38" y="32.06" width="16.03" height="15.03"/>
  <rect x="142.95" y="111.05" width="15.03" height="16.03"/>
  <rect x="55.11" y="135.77" width="15.03" height="16.03"/>
  <rect x="464.41" y="352.19" width="15.03" height="16.03"/>
  <rect x="399.11" y="327.14" width="15.03" height="16.03"/>
  <rect x="400.78" y="384.25" width="15.03" height="16.03"/>
  <rect x="336.16" y="104.2" width="16.03" height="15.03"/>
  <rect x="392.27" y="136.27" width="16.03" height="15.03"/>
  <rect x="95.69" y="344.67" width="16.03" height="15.03"/>
  <rect x="151.8" y="376.74" width="16.03" height="15.03"/>
</svg>
