<svg id="027-database-2" xmlns="http://www.w3.org/2000/svg" viewBox="0 0 463.91 512">
  <title>027-database-2</title>
  <rect x="135.77" y="328.64" width="16.03" height="15.03"/>
  <rect x="167.83" y="328.64" width="16.03" height="15.03"/>
  <rect x="272.03" y="328.64" width="16.03" height="15.03"/>
  <rect x="199.89" y="328.64" width="56.11" height="15.03"/>
  <rect x="207.91" y="352.69" width="16.03" height="15.03"/>
  <rect x="135.77" y="352.69" width="56.11" height="15.03"/>
  <rect x="239.97" y="352.69" width="88.17" height="15.03"/>
  <rect x="304.09" y="328.64" width="24.05" height="15.03"/>
  <rect x="135.77" y="440.86" width="16.03" height="15.03"/>
  <g id="SVGCleanerId_0" data-name="SVGCleanerId 0">
    <rect x="167.83" y="440.86" width="16.03" height="15.03"/>
  </g>
  <rect x="167.83" y="440.86" width="16.03" height="15.03"/>
  <rect x="272.03" y="440.86" width="16.03" height="15.03"/>
  <rect x="48.09" y="320.13" width="15.03" height="16.03"/>
  <rect x="48.09" y="288.06" width="15.03" height="16.03"/>
  <polygon points="66.33 394.97 63.12 398.17 63.12 352.19 48.09 352.19 48.09 398.17 44.89 394.97 34.26 405.6 55.61 426.94 76.95 405.6 66.33 394.97"/>
  <rect x="400.78" y="408.3" width="15.03" height="16.03"/>
  <rect x="400.78" y="376.23" width="15.03" height="16.03"/>
  <polygon points="408.3 285.45 386.95 306.8 397.58 317.42 400.78 314.22 400.78 360.2 415.81 360.2 415.81 314.22 419.01 317.42 429.64 306.8 408.3 285.45"/>
  <rect x="199.89" y="440.86" width="56.11" height="15.03"/>
  <rect x="207.91" y="464.91" width="16.03" height="15.03"/>
  <rect x="135.77" y="464.91" width="56.11" height="15.03"/>
  <rect x="239.97" y="464.91" width="88.17" height="15.03"/>
  <rect x="304.09" y="440.86" width="24.05" height="15.03"/>
  <rect x="135.77" y="216.42" width="16.03" height="15.03"/>
  <g id="SVGCleanerId_1" data-name="SVGCleanerId 1">
    <rect x="167.83" y="216.42" width="16.03" height="15.03"/>
  </g>
  <rect x="167.83" y="216.42" width="16.03" height="15.03"/>
  <rect x="272.03" y="216.42" width="16.03" height="15.03"/>
  <rect x="199.89" y="216.42" width="56.11" height="15.03"/>
  <rect x="207.91" y="240.47" width="16.03" height="15.03"/>
  <rect x="135.77" y="240.47" width="56.11" height="15.03"/>
  <rect x="239.97" y="240.47" width="88.17" height="15.03"/>
  <rect x="304.09" y="216.42" width="24.05" height="15.03"/>
  <path d="M384.25,55.22a103.24,103.24,0,0,0-28,3.86A132.23,132.23,0,0,0,312.5,17.67a130.86,130.86,0,0,0-173.26,38.7,57.95,57.95,0,0,0-29.92,1.86l4.8,14.24a43.07,43.07,0,0,1,26.22-.33l5.47,1.69L148.89,69A115.85,115.85,0,0,1,304.94,30.66a117.17,117.17,0,0,1,41.59,41.17l3.13,5.25,5.78-2a88,88,0,0,1,28.81-4.84c48.89,0,88.67,40,88.67,89.12s-39.78,89.12-88.67,89.12h-.5V184.36H128.25v64.13h-28c-33.74,0-61.19-27.6-61.19-61.51a61.47,61.47,0,0,1,41.41-58.21l6-2.06-1-6.27a43.85,43.85,0,0,1-.59-7.09,43.1,43.1,0,0,1,15.6-33.26L90.89,68.52a58.07,58.07,0,0,0-21,44.83c0,1.13,0,2.26.1,3.4A76.55,76.55,0,0,0,24.05,187c0,41.63,33.28,75.61,74.55,76.51l29.65,0v24.05h16v9h-16v103.2h16v9h-16V512h255.5V480.44h-15V497H143.28V423.83H368.72v40.58h15V408.8h-16v-9h16V296.58h-16v-9h16V263.51h.5c57.18,0,103.7-46.72,103.7-104.14S441.43,55.22,384.25,55.22ZM352.69,408.8H159.31v-9H352.69v9Zm16-97.19v73.14H143.28V311.61H368.72Zm-209.41-15v-9H352.69v9Zm209.41-24.05H143.28V199.39H368.72Z" transform="translate(-24.05)"/>
  <rect x="135.77" y="104.2" width="32.06" height="15.03"/>
  <rect x="215.92" y="104.2" width="32.06" height="15.03"/>
  <rect x="183.86" y="104.2" width="16.03" height="15.03"/>
  <rect x="264.02" y="104.2" width="16.03" height="15.03"/>
  <rect x="296.08" y="104.2" width="16.03" height="15.03"/>
  <rect x="328.14" y="104.2" width="16.03" height="15.03"/>
  <rect x="312.11" y="144.28" width="32.06" height="15.03"/>
  <rect x="231.95" y="144.28" width="32.06" height="15.03"/>
  <rect x="280.05" y="144.28" width="16.03" height="15.03"/>
  <rect x="199.89" y="144.28" width="16.03" height="15.03"/>
  <rect x="167.83" y="144.28" width="16.03" height="15.03"/>
  <rect x="135.77" y="144.28" width="16.03" height="15.03"/>
</svg>
