<svg id="launch" xmlns="http://www.w3.org/2000/svg" viewBox="0 0 512 512">
  <g>
    <path d="M511.94,469a8.83,8.83,0,0,0-.59-2.91c-.06-.15-.16-.26-.23-.4a8.5,8.5,0,0,0-.92-1.6l-57.93-74.49V145.07a25.63,25.63,0,0,0-25.6-25.6H307.2V85.34c0-41.89-43.65-81.49-45.51-83.16a8.51,8.51,0,0,0-11.38,0c-1.86,1.67-45.51,41.27-45.51,83.16v34.13H85.33a25.63,25.63,0,0,0-25.6,25.6V389.61L1.8,464.1a8.28,8.28,0,0,0-.92,1.61c-.07.14-.17.24-.23.39A8.52,8.52,0,0,0,.07,469c0,.12-.07.21-.07.33V486.4A25.63,25.63,0,0,0,25.6,512H486.4A25.62,25.62,0,0,0,512,486.4V469.34C512,469.22,511.94,469.13,511.94,469ZM307.2,136.54H426.67a8.53,8.53,0,0,1,8.53,8.53V290.35a42.32,42.32,0,0,0-25.6-8.75,50.93,50.93,0,0,0-59.73-50.43v-9.3a8.5,8.5,0,0,0-2-5.46L307.2,167.58Zm0,57.7L332.8,225v70.18l-25.6-25.6ZM256,20.51c9.82,10.21,29.22,32.91,33.32,56.29H222.68C226.78,53.42,246.18,30.72,256,20.51ZM221.87,93.87h68.27v128H221.87v-128Zm0,145.07h68.27v25.6H221.87v-25.6Zm13.81,59.73-8.54-17.07h57.72l-8.53,17.07Zm33,17.07A108.64,108.64,0,0,1,256,342.43a108.25,108.25,0,0,1-12.63-26.69ZM76.8,145.07a8.54,8.54,0,0,1,8.53-8.53H204.8v31l-40.69,48.83a8.5,8.5,0,0,0-2,5.46v9.3A50.93,50.93,0,0,0,102.4,281.6a42.26,42.26,0,0,0-25.6,8.75V145.07Zm128,49.17v75.3l-25.6,25.6V225Zm-128,130a25.63,25.63,0,0,1,25.6-25.6,24.7,24.7,0,0,1,7.3,1.1,25.57,25.57,0,0,1,18.18,21.77,8.54,8.54,0,0,0,17-1.89,42.6,42.6,0,0,0-25.15-34.3,31.33,31.33,0,0,1-.23-3.75,34.17,34.17,0,0,1,34.13-34.13,34.62,34.62,0,0,1,8.53,1.19v67.08a8.54,8.54,0,0,0,14.57,6L211,287.47,222.77,311a8.46,8.46,0,0,0,3.37,3.54c0,13.69,17.44,40.66,22.78,48.6a8.52,8.52,0,0,0,14.16,0c5.34-8,22.74-34.91,22.78-48.6a8.46,8.46,0,0,0,3.37-3.54L301,287.48l34.3,34.29a8.54,8.54,0,0,0,14.57-6V248.66a34.62,34.62,0,0,1,8.53-1.19,34.17,34.17,0,0,1,34.13,34.13,31.2,31.2,0,0,1-.23,3.75,42.6,42.6,0,0,0-25.15,34.3,8.54,8.54,0,0,0,7.53,9.43,8.45,8.45,0,0,0,9.43-7.54,25.63,25.63,0,0,1,18.25-21.79,24.71,24.71,0,0,1,7.24-1.08,25.63,25.63,0,0,1,25.6,25.6V384H76.8V324.27Zm-4.36,76.8H439.56L486,460.8H26ZM494.93,486.4a8.53,8.53,0,0,1-8.53,8.53H25.6a8.53,8.53,0,0,1-8.53-8.53v-8.53H494.94v8.53Z" transform="translate(0 0)"/>
    <path d="M392.53,426.67H119.47a8.53,8.53,0,0,0,0,17.06H392.53a8.53,8.53,0,1,0,0-17.06Z" transform="translate(0 0)"/>
    <path d="M85.33,426.67H76.8a8.53,8.53,0,0,0,0,17.06h8.53a8.53,8.53,0,1,0,0-17.06Z" transform="translate(0 0)"/>
    <path d="M435.2,426.67h-8.53a8.53,8.53,0,1,0,0,17.06h8.53a8.53,8.53,0,1,0,0-17.06Z" transform="translate(0 0)"/>
    <path d="M264.53,110.94H247.47a8.53,8.53,0,1,0,0,17.06h17.06a8.53,8.53,0,1,0,0-17.06Z" transform="translate(0 0)"/>
    <path d="M264.53,145.07H247.47a8.54,8.54,0,1,0,0,17.07h17.06a8.54,8.54,0,1,0,0-17.07Z" transform="translate(0 0)"/>
  </g>
</svg>
