<svg xmlns="http://www.w3.org/2000/svg" width="470.13" height="490.23" viewBox="0 0 470.13 490.23">
  <defs>
    <style>
      .cls-1 {
        fill: none;
      }
    </style>
  </defs>
  <title>settings</title>
  <g id="gear-one">
    <path d="M438,106.53a133,133,0,0,0-37-37l8.5-20.4a14.31,14.31,0,0,0-7.7-18.7l-22.3-9.3a14.31,14.31,0,0,0-18.7,7.7l-8.5,20.4a133.93,133.93,0,0,0-52.4,0l-8.5-20.4a14.22,14.22,0,0,0-18.7-7.7l-22.2,9.2a14.22,14.22,0,0,0-7.7,18.7l8.5,20.4a133,133,0,0,0-37,37l-20.4-8.5a14.31,14.31,0,0,0-18.7,7.7l-9.2,22.2a14.31,14.31,0,0,0,7.7,18.7l20.4,8.5a133.93,133.93,0,0,0,0,52.4l-20.4,8.4a14.22,14.22,0,0,0-7.7,18.7l9.2,22.2a14.22,14.22,0,0,0,18.7,7.7l20.4-8.3a133,133,0,0,0,37,37l-8.5,20.4a14.31,14.31,0,0,0,7.7,18.7l22.2,9.2a14.31,14.31,0,0,0,18.7-7.7l8.5-20.4a133.93,133.93,0,0,0,52.4,0l8.4,20.4a14.22,14.22,0,0,0,18.7,7.7l22.2-9.2a14.22,14.22,0,0,0,7.7-18.7l-8.4-20.4a133,133,0,0,0,37-37l20.4,8.5a14.31,14.31,0,0,0,18.7-7.7l9.2-22.2a14.31,14.31,0,0,0-7.7-18.7l-20.4-8.5a133.93,133.93,0,0,0,0-52.4l20.4-8.4a14.22,14.22,0,0,0,7.7-18.7l-9.2-22.2a14.22,14.22,0,0,0-18.7-7.7Zm-21.7,112.1a97.58,97.58,0,1,1-52.8-127.5A97.58,97.58,0,0,1,416.26,218.63Z" transform="translate(-17.16 -20)"/>
    <g>
      <path class="cls-1" d="M349.46,148.33a23,23,0,1,0-46,0v14.2h46Z" transform="translate(-17.16 -20)"/>
      <path class="cls-1" d="M328.26,187.63a10.15,10.15,0,0,0-11.1,5.9,9.9,9.9,0,0,0,3.3,12.3,2.28,2.28,0,0,1,1,2.1V221a5.07,5.07,0,0,0,7.6,4.4,4.53,4.53,0,0,0,2.5-4.4v-13.1a2.16,2.16,0,0,1,1-2.2,9.78,9.78,0,0,0,4.1-8.2A10.15,10.15,0,0,0,328.26,187.63Z" transform="translate(-17.16 -20)"/>
    </g>
  </g>
  <g id="gear-two">
    <path d="M26.46,397.63l14.4.1a85.91,85.91,0,0,0,12.9,31.6l-10.2,10.1a9.32,9.32,0,0,0-.1,13.2l11,11.1a9.32,9.32,0,0,0,13.2.1l10.2-10.1a85.66,85.66,0,0,0,31.4,13.2l-.1,14.4a9.43,9.43,0,0,0,9.3,9.4l15.7.1a9.43,9.43,0,0,0,9.4-9.3l.1-14.4a85.91,85.91,0,0,0,31.6-12.9l10.1,10.2a9.32,9.32,0,0,0,13.2.1l11.1-11a9.32,9.32,0,0,0,.1-13.2l-10.1-10.2a85.66,85.66,0,0,0,13.2-31.4l14.4.1a9.43,9.43,0,0,0,9.4-9.3l.1-15.7a9.43,9.43,0,0,0-9.3-9.4l-14.4-.1a85.91,85.91,0,0,0-12.9-31.6l10.2-10.1a9.32,9.32,0,0,0,.1-13.2l-11-11.1a9.32,9.32,0,0,0-13.2-.1l-10.2,10.1a85.66,85.66,0,0,0-31.4-13.2l.1-14.4a9.43,9.43,0,0,0-9.3-9.4l-15.7-.1a9.43,9.43,0,0,0-9.4,9.3l-.1,14.4a85.91,85.91,0,0,0-31.6,12.9l-10.1-10.2a9.32,9.32,0,0,0-13.2-.1l-11.1,11a9.32,9.32,0,0,0-.1,13.2l10.1,10.2a85.66,85.66,0,0,0-13.2,31.4l-14.4-.1a9.43,9.43,0,0,0-9.4,9.3l-.1,15.7A9.43,9.43,0,0,0,26.46,397.63Zm71.1-46.3a41.72,41.72,0,1,1-.3,59A41.71,41.71,0,0,1,97.56,351.33Z" transform="translate(-17.16 -20)"/>
  </g>
  <g id="gear-three">
    <path d="M238.46,421.63A6.47,6.47,0,0,0,232,428l-.1,10.9a6.47,6.47,0,0,0,6.4,6.5l10,.1a62.61,62.61,0,0,0,8.9,22l-7.1,7a6.49,6.49,0,0,0,0,9.2l7.7,7.7a6.49,6.49,0,0,0,9.2,0l7.1-7a60.24,60.24,0,0,0,21.9,9.2l-.1,10a6.47,6.47,0,0,0,6.4,6.5l10.9.1a6.47,6.47,0,0,0,6.5-6.4l.1-10a61,61,0,0,0,22-9l7,7.1a6.49,6.49,0,0,0,9.2,0l7.7-7.7a6.49,6.49,0,0,0,0-9.2l-7-7.1a60.24,60.24,0,0,0,9.2-21.9l10,.1a6.47,6.47,0,0,0,6.5-6.4l.1-10.9a6.47,6.47,0,0,0-6.4-6.5l-10-.1a62.61,62.61,0,0,0-8.9-22l7.1-7a6.49,6.49,0,0,0,0-9.2l-7.7-7.7a6.49,6.49,0,0,0-9.2,0l-7.1,7a60.24,60.24,0,0,0-21.9-9.2l.1-10a6.47,6.47,0,0,0-6.4-6.5l-10.9-.1a6.47,6.47,0,0,0-6.5,6.4l-.1,10a61,61,0,0,0-22,9l-7-7.1a6.49,6.49,0,0,0-9.2,0l-7.7,7.7a6.49,6.49,0,0,0,0,9.2l7,7.1a60.24,60.24,0,0,0-9.2,21.9Zm49.2-8.3a29,29,0,1,1-.2,41A28.94,28.94,0,0,1,287.66,413.33Z" transform="translate(-17.16 -20)"/>
  </g>
  <g id="lock">
    <path d="M303.46,148.33h0a23,23,0,1,1,46,0v14.2h-64.9a10.76,10.76,0,0,0-10.8,10.8v59.5a10.76,10.76,0,0,0,10.8,10.8h83a10.76,10.76,0,0,0,10.8-10.8v-59.5a10.67,10.67,0,0,0-10.7-10.8h-.3v-14.2a40.9,40.9,0,0,0-81.8,0h0m47,57.4a2.16,2.16,0,0,0-1,2.2V221a4.53,4.53,0,0,1-2.5,4.4,5.07,5.07,0,0,1-7.6-4.4v-13.1a2.28,2.28,0,0,0-1-2.1,9.9,9.9,0,0,1-3.3-12.3,10.19,10.19,0,0,1,19.5,4A9.78,9.78,0,0,1,332.56,205.73Z" transform="translate(-17.16 -20)"/>
  </g>
  <g id="clasp">
    <rect x="268.37" y="128" width="17.93" height="1.17"/>
  </g>
</svg>
