<svg xmlns="http://www.w3.org/2000/svg" viewBox="0 0 512 448.66" fill="rgba(255,255,255,.9)">
  <title>browser</title>
  <g id="Layer_1" data-name="Layer 1">
    <path d="M0,31.67V480.33H512V31.67ZM496.16,47.51v58.06H15.84V47.51Zm-480.32,417V121.4H496.16V464.49Z" transform="translate(0 -31.67)"/>
    <rect x="39.59" y="36.95" width="21.11" height="15.84"/>
    <rect x="71.26" y="36.95" width="21.11" height="15.84"/>
    <rect x="451.3" y="36.95" width="21.11" height="15.84"/>
    <path d="M37,443.38h438.1V142.52H37Zm15.83-285H459.22v269.2H52.78Z" transform="translate(0 -31.67)"/>
  </g>
  <g id="open-bracket">
    <polygon points="176.5 171.22 86.45 261.28 176.5 351.33 187.7 340.13 108.85 261.28 187.7 182.42 176.5 171.22"/>
  </g>
  <g id="slash">
    <rect x="156.84" y="285.03" width="198.34" height="15.83" transform="translate(-118.07 368.18) rotate(-64.8)"/>
  </g>
  <g id="close-bracket">
    <polygon points="324.3 182.42 403.15 261.28 324.3 340.13 335.5 351.33 425.55 261.28 335.5 171.22 324.3 182.42"/>
  </g>
</svg>