<svg id="seo-magnifying-glass" xmlns="http://www.w3.org/2000/svg" viewBox="0 0 512.15 512.14">
  <path d="M377.3,47a162,162,0,1,0,97,181.22A162,162,0,0,0,377.3,47Zm72.86,205.12A145.4,145.4,0,1,1,212.86,93.91h0a145.4,145.4,0,0,1,237.3,158.24Z" transform="translate(0 0)"/>
  <path d="M454.61,57.54A196.46,196.46,0,0,0,159.84,316.08l-15.09,15.09a17,17,0,0,0-16.43,4.35L19.58,444.25a17,17,0,0,0-4.35,16.43L7.5,468.42a25.59,25.59,0,0,0,0,36.2l6-6-6,6.05a25.58,25.58,0,0,0,36.2,0l7.74-7.74a16.58,16.58,0,0,0,16.43-4.35L176.62,383.82A17,17,0,0,0,181,367.39l15.09-15.09A196.46,196.46,0,0,0,454.61,57.54Zm-423,435a8.74,8.74,0,0,1-12.06,0l0,0h0a8.52,8.52,0,0,1,0-12.06l6.05-6.06,12.1,12.09Zm24.18-12.09L43.74,468.41,31.66,456.33h0l84.57-84.58,24.18,24.18Zm96.64-96.64-24.18-24.17,12.1-12.1h0l12.08,12.08,12.09,12.09Zm18.12-30.2-6.05-6-6-6,12.4-12.4c1.93,2.11,3.7,4.31,5.74,6.35s4.25,3.81,6.36,5.74Zm213.61,8.68A179.39,179.39,0,1,1,494.94,196.6,179.4,179.4,0,0,1,384.2,362.33Z" transform="translate(0 0)"/>
  <path d="M256,170.8H230.41a17.09,17.09,0,0,0-17.07,17.07v51.2a8.53,8.53,0,0,0,8.53,8.53H418.14a8.53,8.53,0,0,0,8.53-8.53V119.6a17.07,17.07,0,0,0-17.06-17.06H384a17.08,17.08,0,0,0-17.07,17.06V230.54H349.87v-76.8a17.08,17.08,0,0,0-17.07-17.07H307.2a17.08,17.08,0,0,0-17.06,17.07v76.8H273.07V187.87A17.09,17.09,0,0,0,256,170.8Zm128-51.2h25.62l0,110.94H384Zm-76.8,34.14h25.62l0,76.8H307.2Zm-76.8,34.13H256l0,42.67H230.4Z" transform="translate(0 0)"/>
  <path d="M230.4,273.2a8.54,8.54,0,0,0,8.54,8.54h8.53a8.54,8.54,0,0,0,0-17.07h-8.53A8.53,8.53,0,0,0,230.4,273.2Z" transform="translate(0 0)"/>
  <path d="M307.2,273.2a8.54,8.54,0,0,0,8.54,8.54h8.53a8.54,8.54,0,0,0,0-17.07h-8.53A8.53,8.53,0,0,0,307.2,273.2Z" transform="translate(0 0)"/>
  <path d="M384,273.2a8.54,8.54,0,0,0,8.54,8.54h8.53a8.54,8.54,0,0,0,0-17.07h-8.53A8.53,8.53,0,0,0,384,273.2Z" transform="translate(0 0)"/>
</svg>
