<svg id="web-maintenance" xmlns="http://www.w3.org/2000/svg" viewBox="0 0 512 512" fill="rgba(255,255,255,.9)">
  <title>web-maintenance</title>
  <path d="M512,416.31V96.19H463.91V0H71.64V15H448.88V48.09H15V15H55.61V0H0V415.81H48.09V512H512V432.34H497V497H63.12V159.31H497v257ZM48.09,96.19V400.78H15V63.12H448.88V96.19Zm15,48.09V111.22H497v33.06Z"/>
  <rect x="39.58" y="24.05" width="16.03" height="15.03"/>
  <rect x="71.64" y="24.05" width="16.03" height="15.03"/>
  <rect x="103.7" y="24.05" width="16.03" height="15.03"/>
  <rect x="408.3" y="24.05" width="16.03" height="15.03"/>
  <polygon points="432.34 176.34 432.34 191.37 464.91 191.37 464.91 223.94 479.94 223.94 479.94 176.34 432.34 176.34"/>
  <polygon points="95.19 464.91 95.19 432.34 80.16 432.34 80.16 479.94 127.75 479.94 127.75 464.91 95.19 464.91"/>
  <rect x="464.91" y="296.08" width="15.03" height="16.03"/>
  <rect x="464.91" y="239.97" width="15.03" height="40.08"/>
  <rect x="80.16" y="344.17" width="15.03" height="16.03"/>
  <rect x="80.16" y="376.23" width="15.03" height="40.08"/>
  <rect x="87.67" y="120.24" width="16.03" height="15.03"/>
  <rect x="119.73" y="120.24" width="16.03" height="15.03"/>
  <rect x="151.8" y="120.24" width="16.03" height="15.03"/>
  <rect x="456.39" y="120.24" width="16.03" height="15.03"/>
  <path d="M364.54,374.92l-31.33,8.19-8.59,31.23,22.76,23.05,31.34-8.18L387.3,398Zm2,41.94L352,420.66,341.41,410l4-14.5,14.55-3.8,10.56,10.7Z"/>
  <path d="M356.32,349.9H356A56.51,56.51,0,0,0,342,351.63L315,324.24l37.63-37.15,24.65-4.77,41.65-41.12-49.7-50.34L327.57,232l-5.08,24.58-37.62,37.16L257.78,266.3a56.23,56.23,0,0,0-72.86-67.7l-11.23,3.92,25.71,26L193,241.13l-12.65,6.22-25.71-26-4.06,11.18a56.52,56.52,0,0,0,12.84,58.75A55.89,55.89,0,0,0,203.11,308h.37a56.93,56.93,0,0,0,13.91-1.73l17.27,17.48-91,89.87-.1,16.07,33.73,34.15,16.07.11,91-89.86,17.27,17.48a56.26,56.26,0,1,0,54.7-41.65ZM341.37,239.49l27.72-27.37,28.58,28.94L370,268.43,351.48,272l-13.91-14.1Zm-12,31.46,9,9.12-33.9,33.48-9-9.13ZM203.48,293h-.27a40.93,40.93,0,0,1-29.07-12.27,41.41,41.41,0,0,1-11.85-30.25l15,15.19,26.87-13.22,13.56-26.69-15-15.19a41.22,41.22,0,1,1,.77,82.43ZM272,365.17l-84.76,83.69-3.61,0-7.22-7.3,59.07-58.32-10.56-10.7-59.07,58.32-7.21-7.3,0-3.62,84.75-83.69,3.63,0,25,25.3Zm15.1-9.75-33.73-34.16h0l-21-21.25a56.41,56.41,0,0,0,19-18.81l75.69,76.67a56.74,56.74,0,0,0-19,18.79Zm97.86,80.08a41.21,41.21,0,1,1,.37-58.31A41.28,41.28,0,0,1,384.93,435.5Z"/>
</svg>
